<svg width="9" height="11" viewBox="0 0 9 11" fill="none" xmlns="http://www.w3.org/2000/svg">
<g opacity="0.5">
<path d="M3.06821 2.20643V6.88409C3.06821 7.09085 3.15034 7.28915 3.29655 7.43535C3.44275 7.58156 3.64105 7.6637 3.84782 7.6637H6.96626C7.17302 7.6637 7.37132 7.58156 7.51752 7.43535C7.66373 7.28915 7.74586 7.09085 7.74586 6.88409V3.47018C7.74585 3.36632 7.72509 3.26351 7.68479 3.16778C7.64449 3.07206 7.58547 2.98535 7.5112 2.91275L6.219 1.64901C6.07335 1.5066 5.87775 1.42684 5.67405 1.42682H3.84782C3.64105 1.42682 3.44275 1.50896 3.29655 1.65516C3.15034 1.80137 3.06821 1.99966 3.06821 2.20643Z" stroke="black" stroke-linecap="round" stroke-linejoin="round"/>
<path d="M5.93167 8.01418V8.79377C5.93167 9.00053 5.84954 9.19883 5.70334 9.34503C5.55714 9.49123 5.35884 9.57336 5.15208 9.57336H2.03372C1.82696 9.57336 1.62867 9.49123 1.48247 9.34503C1.33627 9.19883 1.25414 9.00053 1.25414 8.79377V4.50603C1.25414 4.29927 1.33627 4.10098 1.48247 3.95478C1.62867 3.80858 1.82696 3.72644 2.03372 3.72644H2.81331" stroke="black" stroke-linecap="round" stroke-linejoin="round"/>
</g>
</svg>
