<svg width="11" height="9" viewBox="0 0 11 9" fill="none" xmlns="http://www.w3.org/2000/svg">
<path fill-rule="evenodd" clip-rule="evenodd" d="M0.00072012 0.68891C0.00072012 0.338099 -0.0355268 0.0537109 0.406301 0.0537109H10.0063C10.4481 0.0537109 10.8063 0.338099 10.8063 0.68891C10.8063 1.03972 10.4481 1.32411 10.0063 1.32411H0.406301C-0.0355268 1.32411 0.00072012 1.03972 0.00072012 0.68891ZM0.00072012 4.5001C0.00072012 4.14929 -0.0355268 3.8649 0.406301 3.8649H7.6063C8.04813 3.8649 8.4063 4.14929 8.4063 4.5001C8.4063 4.85091 8.04813 5.1353 7.6063 5.1353H0.406301C-0.0355268 5.1353 0.00072012 4.85091 0.00072012 4.5001ZM0.00072012 8.3113C0.00072012 7.96049 -0.0355268 7.6761 0.406301 7.6761H5.2063C5.64813 7.6761 6.0063 7.96049 6.0063 8.3113C6.0063 8.66211 5.64813 8.9465 5.2063 8.9465H0.406301C-0.0355268 8.9465 0.00072012 8.66211 0.00072012 8.3113Z" fill="#2C2C2C"/>
</svg>
