<svg width="153" height="40" viewBox="0 0 153 40" fill="none" xmlns="http://www.w3.org/2000/svg">
<g clip-path="url(#clip0_1_597)">
<mask id="mask0_1_597" style="mask-type:luminance" maskUnits="userSpaceOnUse" x="0" y="0" width="153" height="40">
<path d="M152.921 0.687988H0V39.2987H152.921V0.687988Z" fill="white"/>
</mask>
<g mask="url(#mask0_1_597)">
<path fill-rule="evenodd" clip-rule="evenodd" d="M13.1238 12.3855V17.8062C9.03453 17.8062 6.56193 20.0886 6.56193 23.7975V23.7024V32.832H0V12.861H6.56193V16.5699C7.89332 14.0022 10.2708 12.3855 13.1238 12.3855Z" fill="black"/>
<path fill-rule="evenodd" clip-rule="evenodd" d="M50.1167 26.8408V24.7485C49.0707 24.3682 47.7393 24.0829 46.3128 24.0829C44.5058 24.0829 43.1744 25.2241 43.1744 26.7456C43.1744 28.2673 44.4107 29.3133 46.1225 29.3133C48.1196 29.3133 49.8315 28.3623 50.1167 26.8408ZM56.4885 21.0396V32.9272H50.1167V31.2153C48.6902 32.6419 46.598 33.4027 44.6009 33.4027C40.3213 33.4027 36.9929 30.835 36.9929 27.0309C36.9929 23.1318 40.7968 20.374 45.4568 20.374C46.9785 20.374 48.5952 20.7543 50.1167 21.325V21.0396C50.1167 18.9474 48.5 17.3307 45.7421 17.3307C43.8401 17.3307 42.4135 17.9013 40.7018 18.7573L38.6096 14.6679C41.3675 13.2414 44.3156 12.3855 47.3588 12.3855C52.5894 12.3855 56.4885 15.6189 56.4885 21.0396Z" fill="black"/>
<path fill-rule="evenodd" clip-rule="evenodd" d="M71.8004 12.3853V17.8059C67.711 17.8059 65.2385 20.0884 65.2385 23.7973V23.7022V32.8319H58.6765V12.8608H65.2385V16.5697C66.5698 14.002 68.9474 12.3853 71.8004 12.3853Z" fill="black"/>
<path fill-rule="evenodd" clip-rule="evenodd" d="M26.3431 19.2319L25.9626 19.4221L26.3431 19.8976L26.0578 20.1829L26.1528 20.2781L26.248 20.6584L26.4382 20.1829L26.8186 20.8486L26.7235 20.2781L26.5333 19.8976H26.7235L26.8186 20.2781L27.2941 19.7074H27.7697L28.4353 19.1369L27.6745 18.8516L26.3431 19.2319Z" fill="black"/>
<path fill-rule="evenodd" clip-rule="evenodd" d="M22.8223 18.5667L22.7273 18.7568H22.442L22.1566 18.947L21.3008 19.1372L23.0126 19.9932L23.1077 20.6589L23.4881 20.1834L23.6783 20.4687V19.9932L23.393 19.803L24.0587 19.3275C24.0587 19.3275 23.4881 19.1372 23.393 19.1372C23.4881 19.1372 22.8223 18.5667 22.8223 18.5667Z" fill="black"/>
<path fill-rule="evenodd" clip-rule="evenodd" d="M29.2889 20.9445C29.1939 21.5151 28.7184 21.7053 28.7184 21.7053C28.7184 21.7053 27.7674 21.0396 27.6722 21.2298C27.5772 21.325 27.8624 21.8005 28.2429 22.0857C28.4331 22.276 28.3379 23.322 28.1477 23.7975C28.0527 24.1779 27.7674 24.1779 27.7674 24.1779L27.6722 24.7485L27.0065 23.7975C27.0065 23.7975 26.436 23.7975 26.1507 23.6073C25.8654 23.5122 25.7702 23.227 25.6752 23.0367C25.58 22.9417 25.1045 22.7515 25.1045 22.7515C25.1045 22.7515 25.0095 22.1808 25.1045 21.9907C25.1997 21.8005 25.58 21.5151 25.6752 21.5151C25.7702 21.42 26.1507 21.42 26.3409 21.2298C26.531 21.1348 26.436 20.5641 26.436 20.5641C26.436 20.5641 26.1507 20.6593 26.0555 20.5641C25.9605 20.5641 25.6752 20.374 25.58 20.374C25.485 20.374 25.3898 20.469 25.1045 20.469C24.7242 20.7543 24.7242 20.6593 24.534 20.6593C24.4388 20.6593 24.1535 20.7543 23.9633 20.8495C23.7731 20.9445 23.3928 20.9445 23.3928 20.9445C23.3928 20.9445 23.4878 21.325 23.678 21.5151C23.8683 21.7053 24.1535 21.7053 24.2487 21.8005C24.4388 21.8955 24.629 22.1808 24.629 22.276C24.7242 22.4662 24.629 23.0367 24.629 23.0367C24.629 23.0367 24.3438 23.1318 24.1535 23.322C23.9633 23.4172 23.8683 23.7975 23.678 23.7975C23.4878 23.8927 22.9173 23.8927 22.7271 23.9877C22.5368 24.0829 22.2516 24.5584 22.2516 24.7485C22.1564 25.0339 22.1564 25.6044 22.1564 25.6044C22.1564 25.6044 21.8711 24.9387 21.8711 24.7485C21.8711 24.273 22.0613 24.0829 22.0613 24.0829L21.8711 24.1779C21.8711 24.1779 21.7761 23.1318 21.8711 22.8465C21.9663 22.5612 22.4418 21.8955 22.4418 21.8955C22.4418 21.8955 22.0613 21.8005 21.8711 21.8005C21.6809 21.8005 21.0153 22.0857 21.0153 22.0857C21.0153 22.0857 20.7299 21.325 20.7299 21.0396C20.7299 20.6593 21.1104 20.0886 21.2054 19.8984C21.2054 19.7083 20.9201 19.3278 21.1104 18.8523C21.3956 18.1866 23.2026 16.8552 23.2026 16.8552L24.1535 17.5209C24.1535 17.5209 24.629 17.5209 24.8193 17.5209C25.0095 17.6161 25.2948 17.9013 25.2948 17.9013L26.1507 16.665C26.1507 16.665 27.2919 16.7601 27.4821 16.9504C27.6722 17.1406 28.8134 18.5671 29.0037 19.1376C29.3841 19.8033 29.2889 20.6593 29.2889 20.9445ZM23.4878 24.7485L23.9633 25.3192H25.9605L26.3409 24.5584C26.3409 24.5584 26.436 25.224 26.3409 25.4142C26.2457 25.6996 26.1507 25.7946 26.1507 25.7946H23.678C23.678 25.7946 23.583 25.6044 23.4878 25.4142C23.3928 25.3192 23.4878 24.7485 23.4878 24.7485ZM27.1967 27.8868C27.0065 28.2673 26.1507 28.7428 25.7702 28.7428C25.3898 28.7428 25.3898 28.4574 25.0095 28.4574C24.629 28.4574 24.3438 28.8378 23.8683 28.7428C23.2976 28.5526 23.0123 28.1721 22.8221 27.9819C22.632 27.7918 22.8221 27.1261 22.8221 27.1261C22.8221 27.1261 23.4878 27.2211 23.7731 27.2211C24.0585 27.2211 24.629 26.8408 25.1045 26.8408C25.58 26.8408 26.436 27.3163 26.7212 27.3163C26.9115 27.3163 27.387 27.1261 27.387 27.1261C27.387 27.1261 27.387 27.5064 27.1967 27.8868ZM25.0095 12.3855C19.1132 12.3855 14.168 17.0454 14.168 22.5612C14.168 28.0771 19.1132 32.832 25.0095 32.832C30.9056 32.832 35.8509 28.1721 35.8509 22.5612C35.8509 16.9504 30.9056 12.3855 25.0095 12.3855Z" fill="black"/>
<path d="M83.0234 33.7835C81.7872 33.7835 80.646 33.4982 79.5998 33.0226C78.5538 32.5471 77.6978 31.7863 77.1273 30.9304C76.5566 29.9794 76.1763 28.8382 76.1763 27.5069C76.1763 26.4607 76.3664 25.6048 76.7468 24.9392C77.1273 24.2735 77.6978 23.7028 78.3636 23.2273C79.1243 22.7518 79.8852 22.3714 80.9312 22.1813C81.8822 21.8959 83.0234 21.7058 84.1647 21.6106C85.3059 21.4204 86.352 21.3253 87.1128 21.2302C87.8737 21.1351 88.5393 20.9449 88.9197 20.7547C89.3 20.5646 89.5854 20.1841 89.5854 19.6135V19.138C89.5854 17.7115 89.205 16.5703 88.3492 15.8095C87.4932 14.9536 86.257 14.5733 84.7353 14.5733C83.2137 14.5733 81.9774 14.8585 81.1215 15.5241C80.1705 16.19 79.5048 16.9507 79.1243 17.8067L76.7468 16.8557C77.2223 15.7145 77.8881 14.8585 78.744 14.0978C79.5998 13.3369 80.4557 12.9565 81.5019 12.5761C82.5479 12.2908 83.5941 12.1006 84.6401 12.1006C85.401 12.1006 86.257 12.1957 87.1128 12.3859C87.9687 12.5761 88.7295 12.9565 89.4904 13.432C90.2511 13.9075 90.8217 14.6683 91.2972 15.5241C91.7727 16.4752 91.9629 17.6164 91.9629 18.9479V33.0226H89.5854V29.6941H89.3952C89.1099 30.2648 88.7295 30.9304 88.1588 31.5011C87.5883 32.0716 86.9226 32.5471 86.0666 32.9276C85.2108 33.5933 84.1647 33.7835 83.0234 33.7835ZM83.3088 31.5961C84.5451 31.5961 85.6863 31.3108 86.6373 30.7403C87.5883 30.1696 88.254 29.4089 88.8245 28.4579C89.3 27.5069 89.5854 26.4607 89.5854 25.3195V22.3714C89.3952 22.5616 89.1099 22.6568 88.7295 22.8469C88.3492 22.942 87.8737 23.1323 87.303 23.2273C86.7325 23.3225 86.257 23.4175 85.6863 23.5126C85.1156 23.6078 84.6401 23.6078 84.2598 23.7028C83.1186 23.893 82.0725 24.0833 81.2165 24.3685C80.3607 24.6538 79.79 25.1293 79.3145 25.6048C78.839 26.1755 78.6488 26.8412 78.6488 27.697C78.6488 28.9334 79.1243 29.8844 79.9803 30.6451C80.8362 31.2158 81.9774 31.5961 83.3088 31.5961Z" fill="black"/>
<path d="M102.33 33.7834C100.618 33.7834 99.1918 33.3079 97.8603 32.4521C96.6241 31.5962 95.5779 30.2648 94.9123 28.6481C94.2466 27.0313 93.8662 25.1294 93.8662 23.0372C93.8662 20.945 94.2466 19.043 94.9123 17.4263C95.6731 15.8096 96.6241 14.5732 97.9555 13.6222C99.1918 12.7663 100.713 12.2908 102.425 12.2908C103.661 12.2908 104.803 12.481 105.563 12.9565C106.419 13.432 107.085 14.0027 107.561 14.5732C108.036 15.2389 108.512 15.9046 108.702 16.4752H108.892V5.63379H111.27V33.3079H108.987V29.4088H108.702C108.417 30.0745 108.036 30.6452 107.561 31.406C107.085 32.0717 106.324 32.6422 105.563 33.1178C104.708 33.4982 103.661 33.7834 102.33 33.7834ZM102.615 31.5962C103.947 31.5962 105.088 31.2157 106.039 30.455C106.99 29.6942 107.656 28.6481 108.226 27.4118C108.702 26.0804 108.987 24.6539 108.987 22.942C108.987 21.2302 108.702 19.8038 108.226 18.5675C107.751 17.3311 106.99 16.2851 106.039 15.5242C105.088 14.7634 103.947 14.4781 102.615 14.4781C101.284 14.4781 100.048 14.8585 99.0967 15.6194C98.1456 16.3801 97.3848 17.4263 96.9093 18.6625C96.4339 19.8988 96.1486 21.4205 96.1486 22.942C96.1486 24.5587 96.4339 25.9853 96.9093 27.3166C97.3848 28.6481 98.1456 29.6942 99.0967 30.455C100.143 31.2157 101.284 31.5962 102.615 31.5962Z" fill="black"/>
<path d="M149.595 32.5468C148.073 30.1692 146.551 27.7918 145.03 25.4143L140.371 18.3768C138.753 15.9993 137.232 13.7169 135.52 11.4345C134.759 10.2933 133.903 9.15212 133.047 8.01091C132.192 6.8697 131.431 5.7285 130.575 4.58729L130.289 4.302H130.004C128.958 4.3971 128.007 4.3971 127.056 4.49219C126.105 4.58729 125.059 4.68239 124.108 4.68239L121.255 4.8726C120.304 4.9677 119.353 4.9677 118.497 5.0628L122.777 12.0051L123.918 13.812L125.059 15.6189C125.82 16.8553 126.581 17.9965 127.341 19.2327C128.863 21.6102 130.575 24.0829 132.287 26.3653C133.998 28.7429 135.71 31.0252 137.327 33.3076L137.422 33.4026H137.517C138.468 33.4026 139.419 33.3076 140.465 33.3076C141.416 33.3076 142.462 33.2125 143.413 33.2125C144.365 33.2125 145.41 33.2125 146.362 33.2125C147.312 33.2125 148.359 33.2125 149.309 33.2125H150.07L149.595 32.5468ZM146.267 32.5468C145.315 32.6419 144.365 32.6419 143.318 32.737C142.368 32.8321 141.416 32.8321 140.371 32.8321C139.419 32.8321 138.468 32.9273 137.613 32.9273L137.708 33.0223L137.517 32.9273C137.613 32.9273 137.613 32.9273 137.613 32.9273C136.091 30.6447 134.664 28.2673 133.238 25.9848C131.811 23.7024 130.289 21.4201 128.673 19.1377C127.912 17.9965 127.056 16.8553 126.2 15.7141L123.728 12.2904L118.592 5.253C119.638 5.253 120.589 5.253 121.54 5.34811L124.393 5.44321C125.344 5.44321 126.295 5.5383 127.151 5.5383C127.912 5.5383 128.768 5.5383 129.529 5.5383C130.194 6.6795 130.955 7.72561 131.716 8.86681C132.477 10.008 133.238 11.2443 134.094 12.3855C135.616 14.7631 137.232 17.0455 138.849 19.3279L143.794 26.2702C145.315 28.3624 146.837 30.4546 148.359 32.4518C147.693 32.4518 147.028 32.5468 146.267 32.5468Z" fill="url(#paint0_linear_1_597)"/>
<path d="M134.568 30.6446C133.998 31.5956 133.427 32.5466 132.856 33.4025L130.193 37.7771C127.911 37.7771 125.629 37.7771 123.251 37.7771C122.015 37.7771 120.874 37.7771 119.637 37.7771H117.355L119.352 34.3535C120.208 32.832 121.159 31.3103 122.015 29.7887L123.346 27.5063L124.583 25.2238C125.439 23.7023 126.294 22.1806 127.15 20.5639C127.15 20.4689 127.245 20.4689 127.245 20.3737C126.96 19.8982 126.675 19.5179 126.39 19.0424C126.294 19.2325 126.199 19.3277 126.104 19.5179C125.153 21.0394 124.297 22.5611 123.441 24.1778L122.11 26.4602L120.779 28.8377C119.923 30.3593 118.972 31.976 118.116 33.4976L115.548 38.1576L114.882 39.2988H116.119L119.637 39.2036C120.874 39.1086 122.015 39.1086 123.156 39.0134C125.534 38.9183 127.911 38.7281 130.289 38.6331H130.574L130.669 38.4429L133.237 33.783C133.712 32.927 134.188 31.976 134.758 31.1201C134.758 30.9299 134.663 30.8348 134.568 30.6446ZM151.877 0.687988C150.641 0.687988 149.403 0.783089 148.167 0.878189C146.931 0.973289 145.695 0.973289 144.459 1.06839C143.223 1.16349 141.985 1.16349 140.845 1.25859C139.608 1.35369 138.468 1.44879 137.232 1.54389C135.899 3.7312 134.474 5.91851 133.142 8.10581C133.237 8.29601 133.427 8.48622 133.522 8.67642L133.617 8.77152C134.853 6.39401 136.089 4.0165 137.326 1.63899L141.035 1.73409L144.649 1.82919C145.885 1.82919 147.026 1.82919 148.262 1.92429C149.119 1.92429 149.975 1.92429 150.83 1.92429C150.069 3.16059 149.309 4.3969 148.644 5.63321L147.312 7.91562L145.981 10.198C144.268 13.2412 142.651 16.2845 141.035 19.3277L141.51 20.0884C141.51 20.0884 141.51 19.9934 141.606 19.9934C143.507 16.9501 145.409 14.0021 147.217 10.8637L148.548 8.58132L149.88 6.29891C150.736 4.77731 151.591 3.2557 152.542 1.63899L153.017 0.687988H151.877Z" fill="black"/>
</g>
</g>
<defs>
<linearGradient id="paint0_linear_1_597" x1="150.64" y1="43.5362" x2="117.81" y2="-4.59113" gradientUnits="userSpaceOnUse">
<stop stop-color="#0623E3"/>
<stop offset="1" stop-color="#6BB6F9"/>
</linearGradient>
<clipPath id="clip0_1_597">
<rect width="153" height="38.9211" fill="white" transform="translate(0 0.539551)"/>
</clipPath>
</defs>
</svg>
