<svg width="24" height="24" viewBox="0 0 24 24" fill="none" xmlns="http://www.w3.org/2000/svg">
<g clip-path="url(#clip0_1_165)">
<path d="M20 14.0001C20.2549 14.0004 20.5 14.098 20.6854 14.273C20.8707 14.4479 20.9822 14.6871 20.9972 14.9415C21.0121 15.1959 20.9293 15.4465 20.7657 15.6419C20.6021 15.8374 20.3701 15.963 20.117 15.9931L20 16.0001H6.41399L8.70699 18.2931C8.88634 18.4731 8.99046 18.7145 8.99822 18.9685C9.00597 19.2224 8.91678 19.4698 8.74874 19.6604C8.58071 19.8509 8.34644 19.9704 8.09352 19.9945C7.84059 20.0186 7.58798 19.9455 7.38699 19.7901L7.29299 19.7071L3.46299 15.8771C2.79799 15.2131 3.22399 14.0941 4.12599 14.0061L4.24099 14.0001H20ZM15.293 4.29311C15.4652 4.12093 15.6943 4.0175 15.9373 4.00222C16.1803 3.98694 16.4206 4.06085 16.613 4.21011L16.707 4.29311L20.537 8.12311C21.202 8.78711 20.776 9.90611 19.874 9.99411L19.759 10.0001H3.99999C3.74511 9.99982 3.49996 9.90223 3.31462 9.72726C3.12929 9.55229 3.01776 9.31315 3.00282 9.05871C2.98788 8.80427 3.07067 8.55373 3.23426 8.35827C3.39785 8.16282 3.62989 8.03721 3.88299 8.00711L3.99999 8.00011H17.586L15.293 5.70711C15.1055 5.51958 15.0002 5.26527 15.0002 5.00011C15.0002 4.73494 15.1055 4.48063 15.293 4.29311Z" fill="white"/>
</g>
<defs>
<clipPath id="clip0_1_165">
<rect width="24" height="24" fill="white"/>
</clipPath>
</defs>
</svg>
