<svg width="32" height="32" viewBox="0 0 32 32" fill="none" xmlns="http://www.w3.org/2000/svg">
<path d="M19.668 4.10811C19.6165 4.06685 19.5574 4.03619 19.4941 4.01787C19.4307 3.99956 19.3644 3.99395 19.2989 4.00139C19.2333 4.00883 19.1699 4.02915 19.1123 4.0612C19.0546 4.09324 19.0039 4.13637 18.963 4.18811L14.6602 9.62102C14.4706 9.86048 14.1819 10.0001 13.8764 10.0001C13.0403 10.0001 12.5735 9.03489 13.0926 8.37945L17.396 2.94611C17.6005 2.68787 17.854 2.47259 18.1419 2.31263C18.4299 2.15267 18.7466 2.05119 19.0739 2.01402C19.4011 1.97685 19.7325 2.00472 20.049 2.09603C20.3655 2.18735 20.6608 2.3403 20.918 2.54611L26.065 6.66911C26.5517 7.05906 26.875 7.61681 26.9716 8.23291C27.0413 8.67752 26.9892 9.12935 26.8256 9.54192C26.7066 9.84177 26.393 9.99911 26.0704 9.99911H25.362C24.8174 9.99911 24.5244 9.35957 24.88 8.94711C24.9239 8.89623 24.9571 8.83701 24.9776 8.77301C24.9981 8.709 25.0055 8.64151 24.9994 8.57458C24.9932 8.50765 24.9736 8.44265 24.9418 8.38346C24.9099 8.32428 24.8665 8.27212 24.814 8.23011C23.4348 7.12524 21.4193 7.35726 20.3273 8.74659L19.6423 9.61803C19.4527 9.85926 19.1629 10.0001 18.856 10.0001C18.0214 10.0001 17.554 9.03819 18.0697 8.382L19.8926 6.06252C20.3664 5.4597 20.2662 4.58775 19.668 4.10811ZM6 7.00011C5.20435 7.00011 4.44129 7.31618 3.87868 7.87879C3.31607 8.4414 3 9.20446 3 10.0001V24.5001C3 25.6936 3.47411 26.8382 4.31802 27.6821C5.16193 28.526 6.30653 29.0001 7.5 29.0001H24.5C25.6935 29.0001 26.8381 28.526 27.682 27.6821C28.5259 26.8382 29 25.6936 29 24.5001V15.5001C29 14.3066 28.5259 13.162 27.682 12.3181C26.8381 11.4742 25.6935 11.0001 24.5 11.0001H6C5.73478 11.0001 5.48043 10.8948 5.29289 10.7072C5.10536 10.5197 5 10.2653 5 10.0001C5 9.73489 5.10536 9.48054 5.29289 9.293C5.48043 9.10547 5.73478 9.00011 6 9.00011H10.0986C10.4028 9.00011 10.6905 8.86163 10.8803 8.62385C11.4029 7.96889 10.9366 7.00011 10.0986 7.00011H6ZM21 19.0001H24C24.2652 19.0001 24.5196 19.1055 24.7071 19.293C24.8946 19.4805 25 19.7349 25 20.0001C25 20.2653 24.8946 20.5197 24.7071 20.7072C24.5196 20.8948 24.2652 21.0001 24 21.0001H21C20.7348 21.0001 20.4804 20.8948 20.2929 20.7072C20.1054 20.5197 20 20.2653 20 20.0001C20 19.7349 20.1054 19.4805 20.2929 19.293C20.4804 19.1055 20.7348 19.0001 21 19.0001Z" fill="url(#paint0_linear_1_623)"/>
<defs>
<linearGradient id="paint0_linear_1_623" x1="29" y1="43.7066" x2="-20.4715" y2="26.2146" gradientUnits="userSpaceOnUse">
<stop stop-color="#0623E3"/>
<stop offset="1" stop-color="#724CFF"/>
</linearGradient>
</defs>
</svg>
